<?xml version="1.0" encoding="UTF-8" standalone="no"?>
<!-- Generator: Adobe Illustrator 16.0.0, SVG Export Plug-In . SVG Version: 6.00 Build 0)  -->

<svg
   version="1.0"
   id="Layer_1"
   x="0px"
   y="0px"
   width="24"
   height="24"
   viewBox="0 0 24 24"
   enable-background="new 0 0 100 100"
   xml:space="preserve"
   xmlns="http://www.w3.org/2000/svg"
   xmlns:svg="http://www.w3.org/2000/svg"><defs
   id="defs7" />
<path
   d="M 23.611498,11.067619 14.652087,2.1146092 C 14.168898,1.6318194 13.502512,1.3334257 12.766528,1.3334257 c -1.161176,0 -2.099956,0.9375802 -2.099956,2.0991555 V 8.7904683 L 3.9855128,2.1146092 C 3.5027234,1.6318194 2.8359373,1.3334257 2.1003525,1.3334257 0.93877753,1.3334257 -2.5625e-6,2.2710059 -2.5625e-6,3.4325812 V 20.569019 c 0,1.158375 0.9403798725,2.097555 2.1003550625,2.097555 h 0.016802 c 0.7355848,0 1.4023709,-0.296794 1.8855602,-0.781184 l 6.6638603,-6.658659 v 5.342288 c 0,1.158375 0.93998,2.097555 2.099955,2.097555 h 0.01721 c 0.735583,0 1.40237,-0.296794 1.88516,-0.781184 l 8.942611,-8.93501 c 0.517989,-0.516789 0.517989,-1.365571 0,-1.882761 z"
   id="path2"
   style="stroke-width:0.39999" />
</svg>
