<?xml version="1.0" encoding="UTF-8" standalone="no"?>
<svg
   class="icon icon-tabler icon-tabler-pin-filled"
   width="24"
   height="24"
   viewBox="0 0 24 24"
   stroke-width="2"
   stroke="currentColor"
   fill="none"
   stroke-linecap="round"
   stroke-linejoin="round"
   version="1.1"
   id="svg6"
   sodipodi:docname="pin.svg"
   inkscape:version="1.2.2 (b0a8486541, 2022-12-01)"
   xmlns:inkscape="http://www.inkscape.org/namespaces/inkscape"
   xmlns:sodipodi="http://sodipodi.sourceforge.net/DTD/sodipodi-0.dtd"
   xmlns="http://www.w3.org/2000/svg"
   xmlns:svg="http://www.w3.org/2000/svg">
  <defs
     id="defs10" />
  <sodipodi:namedview
     id="namedview8"
     pagecolor="#ffffff"
     bordercolor="#111111"
     borderopacity="1"
     inkscape:showpageshadow="0"
     inkscape:pageopacity="0"
     inkscape:pagecheckerboard="1"
     inkscape:deskcolor="#d1d1d1"
     showgrid="true"
     inkscape:zoom="12.831042"
     inkscape:cx="5.0658396"
     inkscape:cy="20.341294"
     inkscape:window-width="1916"
     inkscape:window-height="1029"
     inkscape:window-x="0"
     inkscape:window-y="0"
     inkscape:window-maximized="1"
     inkscape:current-layer="svg6">
    <inkscape:grid
       type="xygrid"
       id="grid116"
       originx="0"
       originy="0" />
  </sodipodi:namedview>
  <path
     stroke="none"
     d="M 0,0 H 24 V 24 H 0 Z"
     fill="none"
     id="path2" />
  <path
     d="m 14.866027,3.4589305 0.094,0.083 5.5,5.5 a 1,1 0 0 1 -1.175,1.5900005 l -3.172,3.171 -1.424,3.797 a 1,1 0 0 1 -0.158,0.277 l -0.07,0.08 -1.5,1.5 a 1,1 0 0 1 -1.32,0.082 l -0.095,-0.083 -2.793001,-2.792 -3.793,3.792 a 1,1 0 0 1 -1.497,-1.32 l 0.083,-0.094 3.792,-3.793 -2.792,-2.793 a 1,1 0 0 1 -0.083,-1.32 l 0.083,-0.094 1.5,-1.5000005 a 1,1 0 0 1 0.258,-0.187 l 0.098,-0.042 3.796001,-1.425 3.171,-3.17 a 1,1 0 0 1 1.497,-1.26 z"
     stroke-width="0"
     fill="currentColor"
     id="path4" />
</svg>
