<?xml version="1.0" encoding="UTF-8" standalone="no"?>
<svg
   viewBox="0 0 24 24"
   version="1.1"
   id="svg1298"
   sodipodi:docname="up-arrow.svg"
   inkscape:version="1.2.2 (b0a8486541, 2022-12-01)"
   xmlns:inkscape="http://www.inkscape.org/namespaces/inkscape"
   xmlns:sodipodi="http://sodipodi.sourceforge.net/DTD/sodipodi-0.dtd"
   xmlns="http://www.w3.org/2000/svg"
   xmlns:svg="http://www.w3.org/2000/svg"
   xmlns:rdf="http://www.w3.org/1999/02/22-rdf-syntax-ns#"
   xmlns:cc="http://creativecommons.org/ns#"
   xmlns:dc="http://purl.org/dc/elements/1.1/">
  <defs
     id="defs1302">
    <clipPath
       clipPathUnits="userSpaceOnUse"
       id="clipPath1986">
      <g
         inkscape:label="Clip"
         id="use1988">
        <path
           style="fill:#000000;stroke-width:1.74586"
           d="m 25.20653,15.010976 h 4.303866 v 6.175317 z"
           id="path1990" />
      </g>
    </clipPath>
  </defs>
  <sodipodi:namedview
     id="namedview1300"
     pagecolor="#505050"
     bordercolor="#ffffff"
     borderopacity="1"
     inkscape:showpageshadow="0"
     inkscape:pageopacity="0"
     inkscape:pagecheckerboard="1"
     inkscape:deskcolor="#505050"
     showgrid="false"
     showguides="false"
     inkscape:zoom="16"
     inkscape:cx="3.5"
     inkscape:cy="10.3125"
     inkscape:window-width="1920"
     inkscape:window-height="1011"
     inkscape:window-x="0"
     inkscape:window-y="32"
     inkscape:window-maximized="1"
     inkscape:current-layer="svg1298" />
  <title
     id="title1293">Artboard-68</title>
  <metadata
     id="metadata1421">
    <rdf:RDF>
      <cc:Work
         rdf:about="">
        <dc:title>Artboard-68</dc:title>
      </cc:Work>
    </rdf:RDF>
  </metadata>
  <g
     id="g2573"
     transform="translate(0.00611936,-0.02534595)">
    <g
       id="Up"
       style="fill:#000000"
       transform="matrix(2.3971056,0,0,2.3971056,-16.750283,-16.780251)">
      <path
         d="M 16,15 A 1,1 0 0 1 15.293,14.707 L 12,11.414 8.707,14.707 A 1,1 0 1 1 7.293,13.293 l 4,-4 a 1,1 0 0 1 1.414,0 l 4,4 A 1,1 0 0 1 16,15 Z"
         style="fill:#000000"
         id="path1295" />
    </g>
    <path
       id="path1295-6"
       style="fill:#000000;stroke-width:2.39711"
       d="m 2.4394531,14.462891 a 2.3971056,2.3971056 0 1 0 0,4.792968 h 2.1757813 8.9863276 4.794922 v -2.396484 a 2.3971056,2.3971056 0 0 0 -2.398437,-2.396484 z" />
    <path
       id="path1295-6-5"
       style="fill:#000000;stroke-width:2.41673"
       d="m 8.0429688,14.382812 a 2.3971056,2.4364973 0 0 0 -2.3964844,2.435547 v 2.4375 h 4.7929686 v -0.002 h 11.164063 a 2.3971056,2.4364973 0 0 0 1.695312,-0.71289 2.3971056,2.4364973 0 0 0 -1.695312,-4.158204 z" />
    <ellipse
       style="fill:#000000;stroke-width:27.5191"
       id="path2566"
       cx="11.935946"
       cy="13.335177"
       rx="5.6881418"
       ry="5.5155473" />
  </g>
</svg>
