<?xml version="1.0" encoding="UTF-8" standalone="no"?>
<!-- Generator: Adobe Illustrator 23.0.3, SVG Export Plug-In . SVG Version: 6.00 Build 0)  -->

<svg
   version="1.1"
   id="Layer_1"
   x="0px"
   y="0px"
   viewBox="0 0 24 24"
   xml:space="preserve"
   width="24"
   height="24"
   xmlns="http://www.w3.org/2000/svg"
   xmlns:svg="http://www.w3.org/2000/svg"><defs
   id="defs25" />
<style
   type="text/css"
   id="style2">
	.st0{clip-path:url(#SVGID_2_);}
	.st1{clip-path:url(#SVGID_4_);}
</style>
<g
   id="g20"
   transform="matrix(0.92307692,0,0,0.92307692,-2.7692307,-2.7692307)">
	<g
   id="g6">
		<path
   d="m 13.719238,27 c -0.255859,0 -0.511718,-0.09766 -0.707031,-0.292969 l -2.526855,-2.527344 c -0.390625,-0.390625 -0.390625,-1.023437 0,-1.414062 l 2.526855,-2.526856 c 0.390625,-0.390625 1.023438,-0.390625 1.414063,0 0.390625,0.390625 0.390625,1.023438 0,1.414063 l -1.819825,1.819824 1.819825,1.820313 c 0.390625,0.390625 0.390625,1.023925 0,1.414062 C 14.230957,26.902344 13.975098,27 13.719238,27 Z"
   id="path4" />
	</g>
	<g
   id="g10">
		<path
   d="m 18.280762,12.054199 c -0.25586,0 -0.511719,-0.09766 -0.707032,-0.292969 -0.390625,-0.390625 -0.390625,-1.023437 0,-1.414062 L 19.393555,8.5273437 17.57373,6.7070312 c -0.390625,-0.390625 -0.390625,-1.0239258 0,-1.4140625 0.390625,-0.390625 1.023438,-0.390625 1.414063,0 l 2.526855,2.5273438 c 0.390625,0.390625 0.390625,1.0234375 0,1.4140625 l -2.526855,2.526856 c -0.195313,0.195312 -0.451172,0.292968 -0.707031,0.292968 z"
   id="path8" />
	</g>
	<g
   id="g14">
		<path
   d="m 20.807617,24.472656 h -9.615234 c -0.552246,0 -1,-0.447754 -1,-1 0,-0.552246 0.447754,-1 1,-1 h 9.615234 C 24.222168,22.472656 27,19.694824 27,16.280762 27,14.208496 25.969727,12.282227 24.244629,11.128418 23.785156,10.821777 23.662109,10.200683 23.969238,9.7416991 24.275391,9.2817382 24.897949,9.1591796 25.355957,9.4663085 27.637695,10.991699 29,13.539551 29,16.280762 c 0,4.51709 -3.675293,8.191894 -8.192383,8.191894 z"
   id="path12" />
	</g>
	<g
   id="g18">
		<path
   d="m 7.1699219,22.683594 c -0.1923828,0 -0.387207,-0.05566 -0.559082,-0.171387 C 4.3500977,20.983887 3,18.444336 3,15.719238 3,11.202149 6.675293,7.5273438 11.192383,7.5273438 h 9.615234 c 0.552246,0 1,0.4477539 1,1 0,0.5522461 -0.447754,1 -1,1 H 11.192383 C 7.777832,9.5273438 5,12.305176 5,15.719238 c 0,2.060059 1.0209961,3.979981 2.730957,5.135742 0.4575195,0.309571 0.5776367,0.931153 0.2685547,1.388672 -0.1933594,0.285645 -0.508789,0.439942 -0.8295898,0.439942 z"
   id="path16" />
	</g>
</g>
</svg>
