<?xml version="1.0" encoding="UTF-8" standalone="no"?>
<!-- Creator: CorelDRAW -->

<svg
   xml:space="preserve"
   width="24"
   height="24"
   style="clip-rule:evenodd;fill-rule:evenodd;image-rendering:optimizeQuality;shape-rendering:geometricPrecision;text-rendering:geometricPrecision"
   viewBox="0 0 24 24"
   version="1.1"
   id="svg14"
   sodipodi:docname="music-note.svg"
   inkscape:version="1.2.2 (b0a8486541, 2022-12-01)"
   xmlns:inkscape="http://www.inkscape.org/namespaces/inkscape"
   xmlns:sodipodi="http://sodipodi.sourceforge.net/DTD/sodipodi-0.dtd"
   xmlns="http://www.w3.org/2000/svg"
   xmlns:svg="http://www.w3.org/2000/svg"><sodipodi:namedview
   id="namedview142"
   pagecolor="#ffffff"
   bordercolor="#111111"
   borderopacity="1"
   inkscape:showpageshadow="0"
   inkscape:pageopacity="0"
   inkscape:pagecheckerboard="1"
   inkscape:deskcolor="#d1d1d1"
   showgrid="false"
   inkscape:zoom="17.479167"
   inkscape:cx="4.1764005"
   inkscape:cy="9.6114422"
   inkscape:window-width="1920"
   inkscape:window-height="1011"
   inkscape:window-x="0"
   inkscape:window-y="32"
   inkscape:window-maximized="1"
   inkscape:current-layer="Layer_x0020_1" />
 <defs
   id="defs4">
  <style
   type="text/css"
   id="style2">
   <![CDATA[
    .fil2 {fill:none}
    .fil1 {fill:#424242}
    .fil0 {fill:#424242;fill-rule:nonzero}
   ]]>
  </style>
 </defs>
 <g
   id="Layer_x0020_1"
   inkscape:label="Layer 1">
  <metadata
   id="CorelCorpID_0Corel-Layer" />
  <g
   id="_337034264"
   transform="matrix(0.015625,0,0,0.015625,-4.6804595,-3.9999875)"
   style="fill:#000000">
   <path
   id="_337034576"
   class="fil0"
   d="m 1430.7,1228.39 c 56.217,0 107.118,22.7917 143.962,59.6351 36.8433,36.8433 59.6339,87.7442 59.6339,143.962 0,56.217 -22.7906,107.118 -59.6339,143.961 -36.8445,36.8445 -87.7453,59.6351 -143.962,59.6351 -56.217,0 -107.118,-22.7906 -143.961,-59.6351 -36.8445,-36.8433 -59.6351,-87.7442 -59.6351,-143.961 0,-56.2182 22.7906,-107.119 59.6351,-143.962 36.8433,-36.8433 87.7442,-59.6351 143.961,-59.6351 z"
   style="fill:#000000" />
   <path
   id="_337034192"
   class="fil1"
   d="m 1533.79,259.873 -0.01,-0.0579 30.8776,-3.42874 c 34.3512,-3.81733 65.4201,21.0378 69.2339,55.3902 0.5445,4.91103 0.3827,2.47795 0.3827,7.05709 V 1400.1637 c 0,34.6134 -28.0807,62.6941 -62.6941,62.6941 -34.6134,0 -62.6941,-28.0807 -62.6941,-62.6941 V 388.68368 l -685.71203,76.1906 V 1580.4043 c 0,34.6146 -28.0807,62.6941 -62.6941,62.6941 -34.6134,0 -62.6941,-28.0795 -62.6941,-62.6941 V 408.81428 c 0,-32.915 25.441,-58.8839 57.6615,-62.4638 l 778.33903,-86.4827 z"
   style="fill:#000000" />
   <path
   id="_337034120"
   class="fil0"
   d="m 618.439,1382.53 c 56.5311,0 107.717,22.9181 144.767,59.9682 37.05,37.05 59.9682,88.2355 59.9682,144.767 0,56.5311 -22.9181,107.717 -59.9682,144.767 -37.05,37.0488 -88.2355,59.967 -144.767,59.967 -56.5311,0 -107.717,-22.9181 -144.767,-59.967 -37.0488,-37.05 -59.9682,-88.2355 -59.9682,-144.767 0,-56.5311 22.9193,-107.717 59.9682,-144.767 37.05,-37.05 88.2355,-59.9682 144.767,-59.9682 z"
   style="fill:#000000" />
  </g>
 </g>
 <rect
   class="fil2"
   width="2048"
   height="2048"
   id="rect12"
   x="0"
   y="0" />
</svg>
