<?xml version="1.0" encoding="UTF-8" standalone="no"?>
<svg
   viewBox="0 0 24 24"
   version="1.1"
   id="svg733"
   width="24"
   height="24"
   sodipodi:docname="low-volume.svg"
   inkscape:version="1.2.2 (b0a8486541, 2022-12-01)"
   xmlns:inkscape="http://www.inkscape.org/namespaces/inkscape"
   xmlns:sodipodi="http://sodipodi.sourceforge.net/DTD/sodipodi-0.dtd"
   xmlns="http://www.w3.org/2000/svg"
   xmlns:svg="http://www.w3.org/2000/svg"
   xmlns:rdf="http://www.w3.org/1999/02/22-rdf-syntax-ns#"
   xmlns:cc="http://creativecommons.org/ns#"
   xmlns:dc="http://purl.org/dc/elements/1.1/">
  <sodipodi:namedview
     id="namedview150"
     pagecolor="#ffffff"
     bordercolor="#111111"
     borderopacity="1"
     inkscape:showpageshadow="0"
     inkscape:pageopacity="0"
     inkscape:pagecheckerboard="1"
     inkscape:deskcolor="#d1d1d1"
     showgrid="false"
     inkscape:zoom="24.719275"
     inkscape:cx="11.246285"
     inkscape:cy="12.500367"
     inkscape:window-width="1920"
     inkscape:window-height="1011"
     inkscape:window-x="0"
     inkscape:window-y="32"
     inkscape:window-maximized="1"
     inkscape:current-layer="svg733" />
  <defs
     id="defs737" />
  <title
     id="title726">low audio</title>
  <g
     id="g244">
    <g
       id="low_audio"
       data-name="low audio"
       transform="matrix(1.0005185,0,0,1.0005185,0,-0.00155548)">
      <path
         d="m 11.46,3 c -1,0 -1,0.13 -6.76,4 H 1 A 1,1 0 0 0 0,8 v 8 a 1,1 0 0 0 1,1 h 3.7 l 5.36,3.57 A 2.54,2.54 0 0 0 14,18.46 V 5.54 A 2.54,2.54 0 0 0 11.46,3 Z M 2,9 h 2 v 6 H 2 Z m 10,9.46 a 0.55,0.55 0 0 1 -0.83,0.45 L 6,15.46 V 8.54 L 11.17,5.09 A 0.55,0.55 0 0 1 12,5.54 Z"
         id="path728" />
      <path
         d="m 16.83,9.17 a 1.0040916,1.0040916 0 0 0 -1.42,1.42 2,2 0 0 1 0,2.82 1,1 0 0 0 0.71,1.71 c 1.38,0 3.04,-3.62 0.71,-5.95 z"
         id="path730" />
    </g>
    <path
       style="fill:#000000;stroke-width:6.43455"
       d="M 1.5482099,7.6417281 H 4.8497502 V 16.23404 H 1.5482099 Z"
       id="path360" />
    <path
       style="fill:#000000;stroke-width:4.85127"
       d="m 5.5435835,8.0589058 c 0,0 0,7.7878032 0,7.7878032 0,0 6.2505135,4.183085 6.2505135,4.183085 0,0 0.991034,-0.506432 0.991034,-0.506432 0,0 0.172789,-15.0467242 0.172789,-15.0467242 0,0 -0.991035,-0.5064322 -0.991035,-0.5064322 0,0 -6.4233015,4.0887002 -6.4233015,4.0887002 z"
       id="path362" />
  </g>
  <metadata
     id="metadata959">
    <rdf:RDF>
      <cc:Work
         rdf:about="">
        <dc:title>low audio</dc:title>
      </cc:Work>
    </rdf:RDF>
  </metadata>
</svg>
