<?xml version="1.0" encoding="UTF-8" standalone="no"?>
<svg
   viewBox="0 0 24 24"
   version="1.1"
   id="svg603"
   width="24"
   height="24"
   sodipodi:docname="medium-volume.svg"
   inkscape:version="1.3.2 (091e20ef0f, 2023-11-25, custom)"
   xmlns:inkscape="http://www.inkscape.org/namespaces/inkscape"
   xmlns:sodipodi="http://sodipodi.sourceforge.net/DTD/sodipodi-0.dtd"
   xmlns="http://www.w3.org/2000/svg"
   xmlns:svg="http://www.w3.org/2000/svg"
   xmlns:rdf="http://www.w3.org/1999/02/22-rdf-syntax-ns#"
   xmlns:cc="http://creativecommons.org/ns#"
   xmlns:dc="http://purl.org/dc/elements/1.1/">
  <sodipodi:namedview
     id="namedview1"
     pagecolor="#ffffff"
     bordercolor="#000000"
     borderopacity="0.25"
     inkscape:showpageshadow="2"
     inkscape:pageopacity="0.0"
     inkscape:pagecheckerboard="true"
     inkscape:deskcolor="#d1d1d1"
     inkscape:zoom="35.5"
     inkscape:cx="11.915493"
     inkscape:cy="10.943662"
     inkscape:window-width="1916"
     inkscape:window-height="1029"
     inkscape:window-x="0"
     inkscape:window-y="0"
     inkscape:window-maximized="1"
     inkscape:current-layer="svg603" />
  <defs
     id="defs607" />
  <title
     id="title594">medium audio</title>
  <g
     id="medium_audio"
     data-name="medium audio"
     transform="matrix(1.0005185,0,0,1.0005185,0,-0.00155548)">
    <path
       d="m 11.46,3 c -1,0 -1,0.13 -6.76,4 H 1 A 1,1 0 0 0 0,8 v 8 a 1,1 0 0 0 1,1 h 3.7 l 5.36,3.57 A 2.54,2.54 0 0 0 14,18.46 V 5.54 A 2.54,2.54 0 0 0 11.46,3 Z M 2,9 h 2 v 6 H 2 Z m 10,9.46 a 0.55,0.55 0 0 1 -0.83,0.45 L 6,15.46 V 8.54 L 11.17,5.09 A 0.55,0.55 0 0 1 12,5.54 Z"
       id="path596" />
    <path
       d="m 16.83,9.17 a 1.0040916,1.0040916 0 0 0 -1.42,1.42 2,2 0 0 1 0,2.82 1,1 0 0 0 0.71,1.71 c 1.38,0 3.04,-3.62 0.71,-5.95 z"
       id="path598" />
    <path
       d="m 19,7.05 a 1,1 0 0 0 -1.41,1.41 5,5 0 0 1 0,7.08 1,1 0 0 0 0.7,1.7 c 1.61,0 4.8,-6.05 0.71,-10.19 z"
       id="path600" />
  </g>
  <path
     style="fill:#000000;stroke-width:6.14495"
     d="M 1.4609129,7.5328988 H 4.3975702 V 16.342869 H 1.4609129 Z"
     id="path360" />
  <path
     style="fill:#000000;stroke-width:4.76281"
     d="m 5.3843087,8.0846489 c 0,0 0,7.7369341 0,7.7369341 0,0 6.0642653,4.15576 6.0642653,4.15576 0,0 0.961503,-0.503123 0.961503,-0.503123 0,0 0.16764,-14.9484391 0.16764,-14.9484391 0,0 -0.961504,-0.5031247 -0.961504,-0.5031247 0,0 -6.2319043,4.0619927 -6.2319043,4.0619927 z"
     id="path362" />
  <metadata
     id="metadata1291">
    <rdf:RDF>
      <cc:Work
         rdf:about="">
        <dc:title>medium audio</dc:title>
      </cc:Work>
    </rdf:RDF>
  </metadata>
</svg>
