<?xml version="1.0" encoding="UTF-8" standalone="no"?>
<svg
   viewBox="0 0 24 24"
   version="1.1"
   id="svg471"
   width="24"
   height="24"
   xmlns="http://www.w3.org/2000/svg"
   xmlns:svg="http://www.w3.org/2000/svg"
   xmlns:rdf="http://www.w3.org/1999/02/22-rdf-syntax-ns#"
   xmlns:cc="http://creativecommons.org/ns#"
   xmlns:dc="http://purl.org/dc/elements/1.1/">
  <defs
     id="defs475" />
  <title
     id="title464">no sound</title>
  <g
     id="g998"
     transform="translate(0,0.0046641)">
    <g
       id="no_sound"
       data-name="no sound">
      <path
         d="m 11.46,3 c -1,0 -1,0.13 -6.76,4 H 1 A 1,1 0 0 0 0,8 v 8 a 1,1 0 0 0 1,1 h 3.7 l 5.36,3.57 A 2.54,2.54 0 0 0 14,18.46 V 5.54 A 2.54,2.54 0 0 0 11.46,3 Z M 2,9 h 2 v 6 H 2 Z m 10,9.46 a 0.55,0.55 0 0 1 -0.83,0.45 L 6,15.46 V 8.54 L 11.17,5.09 A 0.55,0.55 0 0 1 12,5.54 Z"
         id="path466" />
      <path
         d="m 21.41,12 2.3,-2.29 A 1.0040916,1.0040916 0 0 0 22.29,8.29 L 20,10.59 17.71,8.29 a 1.0040916,1.0040916 0 0 0 -1.42,1.42 l 2.3,2.29 -2.3,2.29 a 1.0040916,1.0040916 0 0 0 1.42,1.42 l 2.29,-2.3 2.29,2.3 a 1.0040916,1.0040916 0 0 0 1.42,-1.42 z"
         id="path468" />
    </g>
    <path
       style="fill:#000000;stroke-width:5.58343"
       d="M 1.7029309,7.9307956 H 4.3712355 V 15.935709 H 1.7029309 Z"
       id="path360" />
    <path
       style="fill:#000000;stroke-width:4.32759"
       d="m 5.8176815,8.4377707 c 0,0 0,7.0299303 0,7.0299303 0,0 5.5101115,3.776007 5.5101115,3.776007 0,0 0.873641,-0.457148 0.873641,-0.457148 0,0 0.152321,-13.5824481 0.152321,-13.5824481 0,0 -0.873642,-0.4571486 -0.873642,-0.4571486 0,0 -5.6624315,3.6908074 -5.6624315,3.6908074 z"
       id="path362" />
  </g>
  <metadata
     id="metadata991">
    <rdf:RDF>
      <cc:Work
         rdf:about="">
        <dc:title>no sound</dc:title>
      </cc:Work>
    </rdf:RDF>
  </metadata>
</svg>
