<?xml version="1.0" encoding="UTF-8" standalone="no"?>
<!-- Generator: Adobe Illustrator 16.0.0, SVG Export Plug-In . SVG Version: 6.00 Build 0)  -->

<svg
   version="1.0"
   id="Layer_1"
   x="0px"
   y="0px"
   width="24"
   height="24"
   viewBox="0 0 24 24"
   enable-background="new 0 0 100 100"
   xml:space="preserve"
   sodipodi:docname="pause.svg"
   inkscape:version="1.2.2 (b0a8486541, 2022-12-01)"
   xmlns:inkscape="http://www.inkscape.org/namespaces/inkscape"
   xmlns:sodipodi="http://sodipodi.sourceforge.net/DTD/sodipodi-0.dtd"
   xmlns="http://www.w3.org/2000/svg"
   xmlns:svg="http://www.w3.org/2000/svg"><sodipodi:namedview
   id="namedview134"
   pagecolor="#ffffff"
   bordercolor="#111111"
   borderopacity="1"
   inkscape:showpageshadow="0"
   inkscape:pageopacity="0"
   inkscape:pagecheckerboard="1"
   inkscape:deskcolor="#d1d1d1"
   showgrid="false"
   inkscape:zoom="34.958333"
   inkscape:cx="10.269368"
   inkscape:cy="12.014303"
   inkscape:window-width="1920"
   inkscape:window-height="1011"
   inkscape:window-x="0"
   inkscape:window-y="32"
   inkscape:window-maximized="1"
   inkscape:current-layer="Layer_1" /><defs
   id="defs9" />

<path
   d="M 7.5000562,-1.3146e-7 H 4.4999437 C 2.8507143,-1.3146e-7 1.5002811,1.350883 1.5002811,3.0001124 V 20.999888 C 1.5002811,22.649117 2.8507143,24 4.4999437,24 h 3.0001125 c 1.6492294,0 3.0001128,-1.350883 3.0001128,-3.000112 V 3.0001124 C 10.500169,1.350883 9.1492856,-1.3146e-7 7.5000562,-1.3146e-7 Z m 0,20.99988813146 H 4.4999437 V 3.0001124 h 3.0001125 z"
   id="path2"
   style="fill:#2e3436;stroke-width:0.449994;fill-opacity:1" /><path
   d="m 19.500056,-1.3146e-7 h -3.000112 c -1.64923,0 -3.000113,1.35088313146 -3.000113,3.00011253146 V 20.999888 C 13.499831,22.649117 14.850714,24 16.499944,24 h 3.000112 c 1.64923,0 2.999663,-1.350883 2.999663,-3.000112 V 3.0001124 C 22.499719,1.350883 21.149286,-1.3146e-7 19.500056,-1.3146e-7 Z m 0,20.99988813146 H 16.499944 V 3.0001124 h 3.000112 z"
   id="path4"
   style="fill:#2e3436;stroke-width:0.449994;fill-opacity:1" />
</svg>
