<?xml version="1.0" encoding="UTF-8" standalone="no"?>
<svg
   viewBox="0 0 24 24"
   version="1.1"
   id="svg13"
   width="24"
   height="24"
   sodipodi:docname="high-volume.svg"
   inkscape:version="1.2.2 (b0a8486541, 2022-12-01)"
   xmlns:inkscape="http://www.inkscape.org/namespaces/inkscape"
   xmlns:sodipodi="http://sodipodi.sourceforge.net/DTD/sodipodi-0.dtd"
   xmlns="http://www.w3.org/2000/svg"
   xmlns:svg="http://www.w3.org/2000/svg"
   xmlns:rdf="http://www.w3.org/1999/02/22-rdf-syntax-ns#"
   xmlns:cc="http://creativecommons.org/ns#"
   xmlns:dc="http://purl.org/dc/elements/1.1/">
  <sodipodi:namedview
     id="namedview15"
     pagecolor="#ffffff"
     bordercolor="#111111"
     borderopacity="1"
     inkscape:showpageshadow="0"
     inkscape:pageopacity="0"
     inkscape:pagecheckerboard="1"
     inkscape:deskcolor="#d1d1d1"
     showgrid="false"
     inkscape:zoom="24.719275"
     inkscape:cx="8.9808461"
     inkscape:cy="13.95672"
     inkscape:window-width="1920"
     inkscape:window-height="1011"
     inkscape:window-x="0"
     inkscape:window-y="32"
     inkscape:window-maximized="1"
     inkscape:current-layer="svg13" />
  <defs
     id="defs17" />
  <title
     id="title2">high audio</title>
  <g
     id="g763">
    <g
       id="high_audio"
       data-name="high audio"
       class="UnoptimicedTransforms"
       transform="translate(0,0.0046641)">
      <path
         d="m 11.46,3 c -1,0 -1,0.13 -6.76,4 H 1 A 1,1 0 0 0 0,8 v 8 a 1,1 0 0 0 1,1 h 3.7 l 5.36,3.57 A 2.54,2.54 0 0 0 14,18.46 V 5.54 A 2.54,2.54 0 0 0 11.46,3 Z M 2,9 h 2 v 6 H 2 Z m 10,9.46 a 0.55,0.55 0 0 1 -0.83,0.45 L 6,15.46 V 8.54 L 11.17,5.09 A 0.55,0.55 0 0 1 12,5.54 Z"
         id="path4" />
      <path
         d="m 16.83,9.17 a 1.0040916,1.0040916 0 0 0 -1.42,1.42 2,2 0 0 1 0,2.82 1,1 0 0 0 0.71,1.71 c 1.38,0 3.04,-3.62 0.71,-5.95 z"
         id="path6" />
      <path
         d="m 19,7.05 a 1,1 0 0 0 -1.41,1.41 5,5 0 0 1 0,7.08 1,1 0 0 0 0.7,1.7 c 1.61,0 4.8,-6.05 0.71,-10.19 z"
         id="path8" />
      <path
         d="m 21.07,4.93 a 1,1 0 0 0 -1.41,1.41 8,8 0 0 1 0,11.32 1,1 0 0 0 1.41,1.41 10,10 0 0 0 0,-14.14 z"
         id="path10" />
    </g>
    <path
       style="fill:#000000;stroke-width:6.22365"
       d="m 1.4896585,7.698432 h 3.0814376 v 8.612464 H 1.4896585 Z"
       id="path360" />
    <path
       style="fill:#000000;stroke-width:4.55529"
       d="m 5.6219512,8.3405 c 0,0 0,7.363256 0,7.363256 0,0 5.8288178,3.955046 5.8288178,3.955046 0,0 0.924173,-0.478824 0.924173,-0.478824 0,0 0.161131,-14.226461 0.161131,-14.226461 0,0 -0.924173,-0.4788243 -0.924173,-0.4788243 0,0 -5.9899488,3.8658073 -5.9899488,3.8658073 z"
       id="path362" />
  </g>
  <metadata
     id="metadata1169">
    <rdf:RDF>
      <cc:Work
         rdf:about="">
        <dc:title>high audio</dc:title>
      </cc:Work>
    </rdf:RDF>
  </metadata>
</svg>
