<?xml version="1.0" encoding="UTF-8" standalone="no"?>
<svg
   viewBox="0 0 24 24"
   version="1.1"
   id="svg13"
   width="24"
   height="24"
   xmlns="http://www.w3.org/2000/svg"
   xmlns:svg="http://www.w3.org/2000/svg"
   xmlns:rdf="http://www.w3.org/1999/02/22-rdf-syntax-ns#"
   xmlns:cc="http://creativecommons.org/ns#"
   xmlns:dc="http://purl.org/dc/elements/1.1/">
  <defs
     id="defs17" />
  <title
     id="title2">high audio</title>
  <g
     id="g1179"
     transform="translate(0,0.0046641)">
    <g
       id="high_audio"
       data-name="high audio"
       class="UnoptimicedTransforms">
      <path
         d="m 11.46,3 c -1,0 -1,0.13 -6.76,4 H 1 A 1,1 0 0 0 0,8 v 8 a 1,1 0 0 0 1,1 h 3.7 l 5.36,3.57 A 2.54,2.54 0 0 0 14,18.46 V 5.54 A 2.54,2.54 0 0 0 11.46,3 Z M 2,9 h 2 v 6 H 2 Z m 10,9.46 a 0.55,0.55 0 0 1 -0.83,0.45 L 6,15.46 V 8.54 L 11.17,5.09 A 0.55,0.55 0 0 1 12,5.54 Z"
         id="path4" />
      <path
         d="m 16.83,9.17 a 1.0040916,1.0040916 0 0 0 -1.42,1.42 2,2 0 0 1 0,2.82 1,1 0 0 0 0.71,1.71 c 1.38,0 3.04,-3.62 0.71,-5.95 z"
         id="path6" />
      <path
         d="m 19,7.05 a 1,1 0 0 0 -1.41,1.41 5,5 0 0 1 0,7.08 1,1 0 0 0 0.7,1.7 c 1.61,0 4.8,-6.05 0.71,-10.19 z"
         id="path8" />
      <path
         d="m 21.07,4.93 a 1,1 0 0 0 -1.41,1.41 8,8 0 0 1 0,11.32 1,1 0 0 0 1.41,1.41 10,10 0 0 0 0,-14.14 z"
         id="path10" />
    </g>
    <g
       id="g1167">
      <path
         style="fill:#000000;stroke-width:5.58343"
         d="M 1.696225,7.9975431 H 4.3645296 V 16.002457 H 1.696225 Z"
         id="path360" />
      <path
         style="fill:#000000;stroke-width:4.32759"
         d="m 5.8109756,8.5045182 c 0,0 0,7.0299308 0,7.0299308 0,0 5.5101114,3.776007 5.5101114,3.776007 0,0 0.873641,-0.457148 0.873641,-0.457148 0,0 0.152321,-13.5824486 0.152321,-13.5824486 0,0 -0.873642,-0.4571486 -0.873642,-0.4571486 0,0 -5.6624314,3.6908074 -5.6624314,3.6908074 z"
         id="path362" />
    </g>
  </g>
  <metadata
     id="metadata1169">
    <rdf:RDF>
      <cc:Work
         rdf:about="">
        <dc:title>high audio</dc:title>
      </cc:Work>
    </rdf:RDF>
  </metadata>
</svg>
