<?xml version="1.0" encoding="UTF-8" standalone="no"?>
<svg
   class="icon icon-tabler icon-tabler-square-rounded-plus-filled"
   width="24"
   height="24"
   viewBox="0 0 24 24"
   stroke-width="2"
   stroke="currentColor"
   fill="none"
   stroke-linecap="round"
   stroke-linejoin="round"
   version="1.1"
   id="svg6"
   sodipodi:docname="square-rounded-plus.svg"
   inkscape:version="1.2.2 (b0a8486541, 2022-12-01)"
   xmlns:inkscape="http://www.inkscape.org/namespaces/inkscape"
   xmlns:sodipodi="http://sodipodi.sourceforge.net/DTD/sodipodi-0.dtd"
   xmlns="http://www.w3.org/2000/svg"
   xmlns:svg="http://www.w3.org/2000/svg">
  <defs
     id="defs10" />
  <sodipodi:namedview
     id="namedview8"
     pagecolor="#ffffff"
     bordercolor="#111111"
     borderopacity="1"
     inkscape:showpageshadow="0"
     inkscape:pageopacity="0"
     inkscape:pagecheckerboard="1"
     inkscape:deskcolor="#d1d1d1"
     showgrid="true"
     inkscape:zoom="18.145833"
     inkscape:cx="0.90929966"
     inkscape:cy="3.5269805"
     inkscape:window-width="1916"
     inkscape:window-height="1029"
     inkscape:window-x="0"
     inkscape:window-y="0"
     inkscape:window-maximized="1"
     inkscape:current-layer="svg6">
    <inkscape:grid
       type="xygrid"
       id="grid12"
       originx="0"
       originy="0" />
  </sodipodi:namedview>
  <path
     stroke="none"
     d="M 0,5e-7 H 24 V 24 H 0 Z"
     fill="none"
     id="path2"
     style="stroke-width:2" />
  <path
     d="m 12.000057,7.0710311e-6 0.388801,0.00122378897 0.3816,0.00476445 0.739204,0.02040486 0.358801,0.01559645 0.694802,0.04079655 0.663603,0.05519659 c 5.742018,0.55680245 8.078428,2.89321044 8.63523,8.63523134 l 0.05519,0.6636023 0.0408,0.6948046 c 0.0059,0.1176 0.012,0.2376 0.01559,0.3588 l 0.02041,0.739203 0.0059,0.770403 -0.0059,0.770401 -0.02041,0.739202 -0.01559,0.358801 -0.0408,0.694803 -0.05519,0.663601 c -0.556802,5.74202 -2.893212,8.078429 -8.63523,8.635231 l -0.663603,0.0552 -0.694802,0.0408 c -0.117601,0.0059 -0.237601,0.012 -0.358801,0.01559 l -0.739204,0.02043 -0.770401,0.0059 -0.770403,-0.0059 -0.739203,-0.0204 -0.358801,-0.01559 -0.694803,-0.0408 -0.6636014,-0.05519 C 3.031225,23.305288 0.69481675,20.968879 0.13801475,15.226859 L 0.08281451,14.563257 0.04201433,13.868455 A 33.669716,33.669716 0 0 1 0.02641311,13.509653 l -0.02040123,-0.7392 C 0.00241213,12.518451 1.2284079e-5,12.26165 1.2284079e-5,12.000051 L 0.00121107,11.611249 0.00601074,11.229647 0.02641197,10.490445 0.04201205,10.131644 0.08281099,9.4368404 0.13801111,8.773238 C 0.69480459,3.0312176 3.0312127,0.69480949 8.7732333,0.13800827 L 9.4368354,0.08281168 10.131638,0.04201513 c 0.1176,-0.0059757 0.237601,-0.0120001 0.358801,-0.01559645 l 0.739203,-0.02040373 c 0.252,-0.00364748 0.5088,-0.0059757334 0.770403,-0.0059757334 z m 0,7.2000255289689 A 1.2000041,1.2000041 0 0 0 10.800052,8.4000363 V 10.800046 H 8.4000433 l -0.1404006,0.0084 a 1.2000041,1.2000041 0 0 0 0.1404006,2.391587 h 2.4000087 v 2.40001 l 0.0084,0.140399 a 1.2000041,1.2000041 0 0 0 2.391589,-0.140399 v -2.40001 h 2.400008 l 0.140401,-0.0084 A 1.2000041,1.2000041 0 0 0 15.600069,10.800046 H 13.20006 V 8.4000363 L 13.19166,8.2596359 A 1.2000041,1.2000041 0 0 0 12.000057,7.2000326 Z"
     fill="currentColor"
     stroke-width="0"
     id="path4" />
</svg>
