<?xml version="1.0" encoding="UTF-8" standalone="no"?>
<!-- Generator: Adobe Illustrator 16.0.0, SVG Export Plug-In . SVG Version: 6.00 Build 0)  -->

<svg
   version="1.0"
   id="Layer_1"
   x="0px"
   y="0px"
   width="24"
   height="24"
   viewBox="0 0 24 24"
   enable-background="new 0 0 100 100"
   xml:space="preserve"
   sodipodi:docname="fast-forward.svg"
   inkscape:version="1.2.2 (b0a8486541, 2022-12-01)"
   xmlns:inkscape="http://www.inkscape.org/namespaces/inkscape"
   xmlns:sodipodi="http://sodipodi.sourceforge.net/DTD/sodipodi-0.dtd"
   xmlns="http://www.w3.org/2000/svg"
   xmlns:svg="http://www.w3.org/2000/svg"><sodipodi:namedview
   id="namedview5"
   pagecolor="#ffffff"
   bordercolor="#111111"
   borderopacity="1"
   inkscape:showpageshadow="0"
   inkscape:pageopacity="0"
   inkscape:pagecheckerboard="1"
   inkscape:deskcolor="#d1d1d1"
   showgrid="false"
   inkscape:zoom="34.958333"
   inkscape:cx="8.5530394"
   inkscape:cy="12.042908"
   inkscape:window-width="1920"
   inkscape:window-height="1011"
   inkscape:window-x="0"
   inkscape:window-y="32"
   inkscape:window-maximized="1"
   inkscape:current-layer="Layer_1" /><defs
   id="defs387" />
<path
   d="M 23.61152,11.06642 14.652103,2.1134017 C 14.168912,1.6318109 13.502527,1.3334175 12.766542,1.3334175 c -1.161177,0 -2.099958,0.9375805 -2.099958,2.099158 V 8.7904648 L 3.985521,2.1134017 C 3.5027303,1.6318109 2.8359445,1.3334175 2.1003599,1.3334175 0.93878233,1.3334175 1.875e-6,2.270998 1.875e-6,3.4325755 V 20.569025 c 0,1.158376 0.940380945,2.097557 2.100358025,2.097557 h 0.016793 c 0.7355847,0 1.4023704,-0.296793 1.8855616,-0.781184 l 6.6638645,-6.657863 v 5.341491 c 0,1.158376 0.93998,2.097556 2.099957,2.097556 h 0.01719 c 0.735585,0 1.40237,-0.296793 1.885161,-0.781184 l 8.942618,-8.935017 c 0.517991,-0.516789 0.517991,-1.365572 0,-1.883961 z M 2.6667477,19.450248 V 4.5653511 l 7.4490483,7.4434499 z m 10.6661823,0 V 4.5653511 l 7.449048,7.4434499 z"
   id="path382"
   style="stroke-width:0.399992;fill:#000000;fill-opacity:1" />
</svg>
