<?xml version="1.0" encoding="UTF-8" standalone="no"?>
<!-- Generator: Adobe Illustrator 16.0.0, SVG Export Plug-In . SVG Version: 6.00 Build 0)  -->

<svg
   version="1.0"
   id="Layer_1"
   x="0px"
   y="0px"
   width="24"
   height="24"
   viewBox="0 0 5.76 5.76"
   enable-background="new 0 0 100 100"
   xml:space="preserve"
   xmlns="http://www.w3.org/2000/svg"
   xmlns:svg="http://www.w3.org/2000/svg"><defs
   id="defs7" />
<path
   d="m 4.080024,0 c -0.795528,0 -1.44,0.64454404 -1.44,1.44 V 1.920024 H 2.16 c -0.795024,0 -1.44,0.644472 -1.44,1.44 0,0.795456 0.644976,1.44 1.44,1.44 h 0.480024 c 0,0.2651041 -0.2149199,0.479952 -0.480024,0.479952 H 1.6799759 V 5.76 H 2.16 c 0.5301361,0 0.959976,-0.42984 0.959976,-0.959976 0.5301361,0 0.960048,-0.4299119 0.960048,-0.9600478 C 4.080024,3.3096241 3.6501121,2.88 3.119976,2.88 V 2.399976 C 4.180536,2.399976 5.04,1.540368 5.04,0.48002403 V 0 Z m -1.44,2.88 C 2.3749201,2.88 2.1348719,2.9873526 1.9612081,3.1612321 L 2.300616,3.5006401 C 2.3873041,3.4136641 2.507328,3.3600248 2.640024,3.3600248 v 0.959976 H 2.16 c -0.530136,0 -0.959976,-0.429624 -0.959976,-0.959976 0,-0.530424 0.42984,-0.9600481 0.959976,-0.9600481 H 2.640024 Z M 3.119976,3.360024 C 3.3850801,3.360024 3.6,3.5746561 3.6,3.8399762 3.6,4.1050801 3.3850801,4.32 3.119976,4.32 Z m 0,-1.440288 V 1.44 c 0,-0.53035202 0.4296241,-0.95997597 0.960048,-0.95997597 H 4.5599762 C 4.5599762,1.2752641 3.915216,1.919736 3.119976,1.919736 Z"
   id="path2"
   style="stroke-width:0.072" />
</svg>
