<?xml version="1.0" encoding="UTF-8" standalone="no"?>
<!-- Generator: Adobe Illustrator 16.0.0, SVG Export Plug-In . SVG Version: 6.00 Build 0)  -->

<svg
   version="1.0"
   id="Layer_1"
   x="0px"
   y="0px"
   width="24"
   height="24"
   viewBox="0 0 24 24"
   enable-background="new 0 0 100 100"
   xml:space="preserve"
   xmlns="http://www.w3.org/2000/svg"
   xmlns:svg="http://www.w3.org/2000/svg"><defs
   id="defs891" />

<path
   d="M 10.500168,20.999887 C 10.500168,22.649117 9.1492849,24 7.5000555,24 H 4.4999442 C 2.8507149,24 1.500281,22.649117 1.500281,20.999887 V 3.0001128 C 1.500281,1.3508834 2.8507149,0 4.4999442,0 h 3.0001113 c 1.6492294,0 3.0001125,1.3508834 3.0001125,3.0001128 z"
   id="path884"
   style="stroke-width:0.449994" /><path
   d="M 22.499719,20.999887 C 22.499719,22.649117 21.149286,24 19.500057,24 h -3.000113 c -1.649229,0 -3.000113,-1.350883 -3.000113,-3.000113 V 3.0001128 C 13.499831,1.3508834 14.850715,0 16.499944,0 h 3.000113 c 1.649229,0 2.999662,1.3508834 2.999662,3.0001128 z"
   id="path886"
   style="stroke-width:0.449994" />
</svg>
