<?xml version="1.0" encoding="UTF-8" standalone="no"?>
<svg
   width="24"
   height="24"
   viewBox="0 0 24 24"
   fill="none"
   version="1.1"
   id="svg6"
   sodipodi:docname="plus.svg"
   inkscape:version="1.2.2 (b0a8486541, 2022-12-01)"
   xmlns:inkscape="http://www.inkscape.org/namespaces/inkscape"
   xmlns:sodipodi="http://sodipodi.sourceforge.net/DTD/sodipodi-0.dtd"
   xmlns="http://www.w3.org/2000/svg"
   xmlns:svg="http://www.w3.org/2000/svg">
  <defs
     id="defs10" />
  <sodipodi:namedview
     id="namedview8"
     pagecolor="#505050"
     bordercolor="#ffffff"
     borderopacity="1"
     inkscape:showpageshadow="0"
     inkscape:pageopacity="0"
     inkscape:pagecheckerboard="1"
     inkscape:deskcolor="#505050"
     showgrid="true"
     inkscape:zoom="12.359637"
     inkscape:cx="-0.40454262"
     inkscape:cy="-0.080908523"
     inkscape:window-width="1920"
     inkscape:window-height="1011"
     inkscape:window-x="0"
     inkscape:window-y="32"
     inkscape:window-maximized="1"
     inkscape:current-layer="svg6">
    <inkscape:grid
       type="xygrid"
       id="grid435" />
  </sodipodi:namedview>
  <g
     id="g433"
     style="fill:#000000"
     transform="matrix(1.7142857,0,0,1.7142857,-8.5714286,-8.5714286)">
    <path
       fill-rule="evenodd"
       clip-rule="evenodd"
       d="m 12,5 c 0.5523,0 1,0.44772 1,1 v 12 c 0,0.5523 -0.4477,1 -1,1 -0.5523,0 -1,-0.4477 -1,-1 V 6 c 0,-0.55228 0.4477,-1 1,-1 z"
       fill="black"
       id="path2"
       style="fill:#000000" />
    <path
       fill-rule="evenodd"
       clip-rule="evenodd"
       d="m 5,12 c 0,-0.5523 0.44772,-1 1,-1 h 12 c 0.5523,0 1,0.4477 1,1 0,0.5523 -0.4477,1 -1,1 H 6 C 5.44772,13 5,12.5523 5,12 Z"
       fill="black"
       id="path4"
       style="fill:#000000" />
  </g>
</svg>
