<?xml version="1.0" encoding="UTF-8" standalone="no"?>
<svg
   width="24"
   height="24"
   viewBox="0 0 24 24"
   fill="none"
   version="1.1"
   id="svg6"
   sodipodi:docname="search.svg"
   inkscape:version="1.2.2 (b0a8486541, 2022-12-01)"
   xmlns:inkscape="http://www.inkscape.org/namespaces/inkscape"
   xmlns:sodipodi="http://sodipodi.sourceforge.net/DTD/sodipodi-0.dtd"
   xmlns="http://www.w3.org/2000/svg"
   xmlns:svg="http://www.w3.org/2000/svg">
  <defs
     id="defs10" />
  <sodipodi:namedview
     id="namedview8"
     pagecolor="#505050"
     bordercolor="#ffffff"
     borderopacity="1"
     inkscape:showpageshadow="0"
     inkscape:pageopacity="0"
     inkscape:pagecheckerboard="1"
     inkscape:deskcolor="#505050"
     showgrid="true"
     inkscape:zoom="8.7395833"
     inkscape:cx="-4.2336114"
     inkscape:cy="-2.0595948"
     inkscape:window-width="1920"
     inkscape:window-height="1011"
     inkscape:window-x="0"
     inkscape:window-y="32"
     inkscape:window-maximized="1"
     inkscape:current-layer="svg6">
    <inkscape:grid
       type="xygrid"
       id="grid573" />
  </sodipodi:namedview>
  <g
     id="g295"
     style="fill:#000000"
     transform="matrix(1.2000015,0,0,1.2000015,-2.400003,-2.400003)">
    <path
       fill-rule="evenodd"
       clip-rule="evenodd"
       d="m 10,4 c -3.31371,0 -6,2.68629 -6,6 0,3.3137 2.68629,6 6,6 3.3137,0 6,-2.6863 6,-6 0,-3.31371 -2.6863,-6 -6,-6 z m -8,6 c 0,-4.41828 3.58172,-8 8,-8 4.4183,0 8,3.58172 8,8 0,4.4183 -3.5817,8 -8,8 -4.41828,0 -8,-3.5817 -8,-8 z"
       fill="black"
       id="path2"
       style="fill:#000000" />
    <path
       fill-rule="evenodd"
       clip-rule="evenodd"
       d="m 16.2929,16.2929 c 0.3905,-0.3905 1.0237,-0.3905 1.4142,0 l 4,4 c 0.3905,0.3905 0.3905,1.0237 0,1.4142 -0.3905,0.3905 -1.0237,0.3905 -1.4142,0 l -4,-4 c -0.3905,-0.3905 -0.3905,-1.0237 0,-1.4142 z"
       fill="black"
       id="path4"
       style="fill:#000000" />
  </g>
</svg>
