<?xml version="1.0" encoding="UTF-8" standalone="no"?>
<svg
   version="1.1"
   id="svg1042"
   x="0px"
   y="0px"
   viewBox="0 0 24 24"
   xml:space="preserve"
   width="24"
   height="24"
   xmlns="http://www.w3.org/2000/svg"
   xmlns:svg="http://www.w3.org/2000/svg"
   xmlns:rdf="http://www.w3.org/1999/02/22-rdf-syntax-ns#"
   xmlns:cc="http://creativecommons.org/ns#"
   xmlns:dc="http://purl.org/dc/elements/1.1/">
  <defs
   id="defs1046" />
  <title
   id="title1037">Artboard-162</title>
  <g
   id="Shuffle-2"
   data-name="Shuffle"
   style="fill:#000000"
   transform="matrix(1.1998924,0,0,1.1998924,-2.399786,-2.3993087)">
    <path
   d="m 21.706,16.708 -2,2 A 1,1 0 0 1 18.292,17.294 L 18.586,17 H 15.663 A 3.978,3.978 0 0 1 12.271,15.12 L 11.5,13.887 10.729,15.12 A 3.978,3.978 0 0 1 7.337,17 H 3 a 1,1 0 0 1 0,-2 h 4.337 a 1.992,1.992 0 0 0 1.7,-0.94 L 10.321,12 9.033,9.94 A 1.989,1.989 0 0 0 7.337,9 H 3 A 1,1 0 0 1 3,7 h 4.337 a 3.978,3.978 0 0 1 3.392,1.88 L 11.5,10.113 12.271,8.88 A 3.978,3.978 0 0 1 15.663,7 h 2.923 L 18.293,6.707 a 1,1 0 0 1 1.414,-1.414 l 2,2 a 1,1 0 0 1 0,1.416 l -2,2 A 1,1 0 0 1 18.293,9.295 L 18.586,9 h -2.923 a 1.992,1.992 0 0 0 -1.7,0.94 l -1.284,2.06 1.288,2.06 a 1.989,1.989 0 0 0 1.7,0.94 h 2.923 l -0.293,-0.293 a 1,1 0 0 1 1.414,-1.414 l 2,2 a 1,1 0 0 1 -0.005,1.415 z"
   style="fill:#000000"
   id="path1039" />
  </g>
  <metadata
   id="metadata1165">
    <rdf:RDF>
      <cc:Work
   rdf:about="">
        <dc:title>Artboard-162</dc:title>
      </cc:Work>
    </rdf:RDF>
  </metadata>
</svg>
