<?xml version="1.0" encoding="UTF-8" standalone="no"?>
<svg
   viewBox="0 0 24 24"
   version="1.1"
   id="svg4"
   xmlns="http://www.w3.org/2000/svg"
   xmlns:svg="http://www.w3.org/2000/svg">
  <defs
     id="defs8" />
  <path
     d="M 22.7892,9.6 H 20.904 A 1.2468,1.2468 0 0 1 19.7628,8.7912 l -0.006,-0.0156 a 1.248,1.248 0 0 1 0.24,-1.3752 l 1.332,-1.332 a 1.212,1.212 0 0 0 0,-1.7136 l -1.68,-1.68 a 1.212,1.212 0 0 0 -1.7136,0 l -1.332,1.332 a 1.248,1.248 0 0 1 -1.3752,0.24 H 15.2124 A 1.248,1.248 0 0 1 14.4,3.0948 V 1.2108 A 1.2108,1.2108 0 0 0 13.1892,0 H 10.8108 A 1.2108,1.2108 0 0 0 9.6,1.2108 v 1.884 A 1.248,1.248 0 0 1 8.7912,4.2372 H 8.7756 a 1.248,1.248 0 0 1 -1.3752,-0.24 l -1.332,-1.332 a 1.212,1.212 0 0 0 -1.7136,0 l -1.68,1.68 a 1.212,1.212 0 0 0 0,1.7136 l 1.332,1.332 a 1.248,1.248 0 0 1 0.24,1.3752 V 8.7816 A 1.2468,1.2468 0 0 1 3.096,9.6 H 1.2108 A 1.2108,1.2108 0 0 0 0,10.8108 v 2.3784 A 1.2108,1.2108 0 0 0 1.2108,14.4 H 3.096 a 1.2468,1.2468 0 0 1 1.1412,0.8088 v 0.0156 a 1.248,1.248 0 0 1 -0.24,1.3752 l -1.332,1.332 a 1.212,1.212 0 0 0 0,1.7136 l 1.68,1.68 a 1.212,1.212 0 0 0 1.7136,0 l 1.332,-1.332 a 1.248,1.248 0 0 1 1.3752,-0.24 l 0.0156,0.006 A 1.2468,1.2468 0 0 1 9.6,20.904 v 1.8852 A 1.2108,1.2108 0 0 0 10.8108,24 h 2.3784 A 1.2108,1.2108 0 0 0 14.4,22.7892 V 20.904 a 1.2468,1.2468 0 0 1 0.8088,-1.1412 l 0.0156,-0.006 a 1.248,1.248 0 0 1 1.3752,0.24 l 1.332,1.332 a 1.212,1.212 0 0 0 1.7136,0 l 1.68,-1.68 a 1.212,1.212 0 0 0 0,-1.7136 l -1.332,-1.332 a 1.248,1.248 0 0 1 -0.24,-1.3752 l 0.006,-0.0156 A 1.2468,1.2468 0 0 1 20.904,14.4 h 1.8852 A 1.2108,1.2108 0 0 0 24,13.1892 V 10.8108 A 1.2108,1.2108 0 0 0 22.7892,9.6 Z M 12,15.6 A 3.6,3.6 0 1 1 15.6,12 3.6,3.6 0 0 1 12,15.6 Z"
     id="path2"
     style="stroke-width:1.2" />
</svg>
